<mxfile host="65bd71144e">
    <diagram id="cD52tqRjU22jmfu8s6Lm" name="Page-1">
        <mxGraphModel dx="1840" dy="1625" grid="1" gridSize="10" guides="1" tooltips="1" connect="1" arrows="1" fold="1" page="1" pageScale="1" pageWidth="850" pageHeight="1100" math="0" shadow="0">
            <root>
                <mxCell id="0"/>
                <mxCell id="1" parent="0"/>
                <mxCell id="170" value="" style="rounded=0;whiteSpace=wrap;html=1;strokeColor=none;sketch=1;fillStyle=cross-hatch;fillColor=#E6E6E6;strokeWidth=1;" parent="1" vertex="1">
                    <mxGeometry width="160" height="320" as="geometry"/>
                </mxCell>
                <mxCell id="181" value="" style="rounded=0;whiteSpace=wrap;html=1;strokeColor=none;fillColor=#f8cecc;perimeterSpacing=0;" parent="1" vertex="1">
                    <mxGeometry width="80" height="120" as="geometry"/>
                </mxCell>
                <mxCell id="173" value="" style="endArrow=none;dashed=1;html=1;" parent="1" edge="1">
                    <mxGeometry width="50" height="50" relative="1" as="geometry">
                        <mxPoint y="320" as="sourcePoint"/>
                        <mxPoint x="160" y="320" as="targetPoint"/>
                    </mxGeometry>
                </mxCell>
                <mxCell id="179" value="128" style="rounded=0;whiteSpace=wrap;html=1;fillColor=none;fontFamily=Lucida Console;strokeColor=none;align=center;" parent="1" vertex="1">
                    <mxGeometry x="20" y="-20" width="120" height="20" as="geometry"/>
                </mxCell>
                <mxCell id="194" value="256" style="rounded=0;whiteSpace=wrap;html=1;fillColor=none;fontFamily=Lucida Console;strokeColor=none;align=right;" parent="1" vertex="1">
                    <mxGeometry x="-40" y="150" width="30" height="20" as="geometry"/>
                </mxCell>
                <mxCell id="195" value="(50%, 37.5%)&lt;br&gt;=&lt;br&gt;(64, 96)" style="rounded=0;whiteSpace=wrap;html=1;fillColor=none;fontFamily=Lucida Console;strokeColor=none;align=center;" parent="1" vertex="1">
                    <mxGeometry x="-10.000000000000007" y="50" width="120" height="20" as="geometry"/>
                </mxCell>
                <mxCell id="196" value="" style="rounded=0;whiteSpace=wrap;html=1;strokeColor=none;fillColor=#d5e8d4;perimeterSpacing=0;" parent="1" vertex="1">
                    <mxGeometry y="120" width="120" height="80" as="geometry"/>
                </mxCell>
                <mxCell id="197" value="" style="rounded=0;whiteSpace=wrap;html=1;strokeColor=none;fillColor=#dae8fc;perimeterSpacing=0;" parent="1" vertex="1">
                    <mxGeometry y="200" width="160" height="120" as="geometry"/>
                </mxCell>
                <mxCell id="171" value="" style="endArrow=none;dashed=1;html=1;" parent="1" edge="1">
                    <mxGeometry width="50" height="50" relative="1" as="geometry">
                        <mxPoint as="sourcePoint"/>
                        <mxPoint x="160" as="targetPoint"/>
                    </mxGeometry>
                </mxCell>
                <mxCell id="172" value="" style="endArrow=none;dashed=1;html=1;entryX=0;entryY=1;entryDx=0;entryDy=0;" parent="1" edge="1" target="170">
                    <mxGeometry width="50" height="50" relative="1" as="geometry">
                        <mxPoint as="sourcePoint"/>
                        <mxPoint y="160" as="targetPoint"/>
                    </mxGeometry>
                </mxCell>
                <mxCell id="189" value="" style="endArrow=none;dashed=1;html=1;entryX=1;entryY=1;entryDx=0;entryDy=0;exitX=1;exitY=0;exitDx=0;exitDy=0;" parent="1" edge="1" target="170" source="170">
                    <mxGeometry width="50" height="50" relative="1" as="geometry">
                        <mxPoint x="160" y="140" as="sourcePoint"/>
                        <mxPoint x="160" y="300" as="targetPoint"/>
                    </mxGeometry>
                </mxCell>
                <mxCell id="198" value="(100%, 37.5%)&lt;br&gt;=&lt;br&gt;(128, 96)" style="rounded=0;whiteSpace=wrap;html=1;fillColor=none;fontFamily=Lucida Console;strokeColor=none;align=center;" parent="1" vertex="1">
                    <mxGeometry x="20" y="250" width="120" height="20" as="geometry"/>
                </mxCell>
                <mxCell id="199" value="75%, 25%)&lt;br&gt;=&lt;br&gt;(96, 64)" style="rounded=0;whiteSpace=wrap;html=1;fillColor=none;fontFamily=Lucida Console;strokeColor=none;align=center;" parent="1" vertex="1">
                    <mxGeometry y="150" width="120" height="20" as="geometry"/>
                </mxCell>
            </root>
        </mxGraphModel>
    </diagram>
</mxfile>